<?xml version="1.0" encoding="UTF-8" standalone="no"?>
<!-- Created with Inkscape (http://www.inkscape.org/) -->

<svg
   version="1.1"
   id="svg1"
   width="1440"
   height="1440"
   viewBox="0 0 1440 1440"
   sodipodi:docname="enoud.pdf"
   inkscape:export-filename="enoud.svg"
   inkscape:export-xdpi="96"
   inkscape:export-ydpi="96"
   xmlns:inkscape="http://www.inkscape.org/namespaces/inkscape"
   xmlns:sodipodi="http://sodipodi.sourceforge.net/DTD/sodipodi-0.dtd"
   xmlns="http://www.w3.org/2000/svg"
   xmlns:svg="http://www.w3.org/2000/svg">
  <defs
     id="defs1">
    <clipPath
       clipPathUnits="userSpaceOnUse"
       id="clipPath2">
      <path
         d="M 0,1080 H 1080 V 0 H 0 Z"
         transform="translate(-645.16541,-615.95062)"
         id="path2" />
    </clipPath>
    <clipPath
       clipPathUnits="userSpaceOnUse"
       id="clipPath4">
      <path
         d="M 0,1080 H 1080 V 0 H 0 Z"
         transform="translate(-886.32542,-610.53412)"
         id="path4" />
    </clipPath>
    <clipPath
       clipPathUnits="userSpaceOnUse"
       id="clipPath6">
      <path
         d="M 0,1080 H 1080 V 0 H 0 Z"
         transform="translate(-657.55492,-618.87532)"
         id="path6" />
    </clipPath>
    <clipPath
       clipPathUnits="userSpaceOnUse"
       id="clipPath8">
      <path
         d="M 0,1080 H 1080 V 0 H 0 Z"
         transform="translate(-613.19342,-665.71511)"
         id="path8" />
    </clipPath>
    <clipPath
       clipPathUnits="userSpaceOnUse"
       id="clipPath10">
      <path
         d="M 0,1080 H 1080 V 0 H 0 Z"
         transform="translate(-201.00861,-550.77641)"
         id="path10" />
    </clipPath>
    <clipPath
       clipPathUnits="userSpaceOnUse"
       id="clipPath12">
      <path
         d="M 0,1080 H 1080 V 0 H 0 Z"
         transform="translate(-865.67365,-429.98941)"
         id="path12" />
    </clipPath>
    <clipPath
       clipPathUnits="userSpaceOnUse"
       id="clipPath14">
      <path
         d="M 0,1080 H 1080 V 0 H 0 Z"
         transform="translate(-652.02532,-558.24401)"
         id="path14" />
    </clipPath>
    <clipPath
       clipPathUnits="userSpaceOnUse"
       id="clipPath16">
      <path
         d="M 0,1080 H 1080 V 0 H 0 Z"
         transform="translate(-818.18672,-619.56802)"
         id="path16" />
    </clipPath>
    <clipPath
       clipPathUnits="userSpaceOnUse"
       id="clipPath18">
      <path
         d="M 0,1080 H 1080 V 0 H 0 Z"
         transform="translate(-145.00011,-291.19778)"
         id="path18" />
    </clipPath>
    <clipPath
       clipPathUnits="userSpaceOnUse"
       id="clipPath20">
      <path
         d="M 0,1080 H 1080 V 0 H 0 Z"
         id="path20" />
    </clipPath>
    <clipPath
       clipPathUnits="userSpaceOnUse"
       id="clipPath22">
      <path
         d="M 0,1080 H 1080 V 0 H 0 Z"
         transform="translate(-269.68791,-321.42923)"
         id="path22" />
    </clipPath>
    <clipPath
       clipPathUnits="userSpaceOnUse"
       id="clipPath24">
      <path
         d="M 0,1080 H 1080 V 0 H 0 Z"
         transform="translate(-349.68621,-321.35288)"
         id="path24" />
    </clipPath>
    <clipPath
       clipPathUnits="userSpaceOnUse"
       id="clipPath26">
      <path
         d="M 0,1080 H 1080 V 0 H 0 Z"
         transform="translate(-261.77311,-290.68823)"
         id="path26" />
    </clipPath>
    <clipPath
       clipPathUnits="userSpaceOnUse"
       id="clipPath28">
      <path
         d="M 0,1080 H 1080 V 0 H 0 Z"
         id="path28" />
    </clipPath>
    <clipPath
       clipPathUnits="userSpaceOnUse"
       id="clipPath30">
      <path
         d="M 0,1080 H 1080 V 0 H 0 Z"
         transform="translate(-488.01611,-318.34283)"
         id="path30" />
    </clipPath>
    <clipPath
       clipPathUnits="userSpaceOnUse"
       id="clipPath32">
      <path
         d="M 0,1080 H 1080 V 0 H 0 Z"
         transform="translate(-498.49091,-318.34283)"
         id="path32" />
    </clipPath>
    <clipPath
       clipPathUnits="userSpaceOnUse"
       id="clipPath34">
      <path
         d="M 0,1080 H 1080 V 0 H 0 Z"
         transform="translate(-509.72782,-290.68823)"
         id="path34" />
    </clipPath>
    <clipPath
       clipPathUnits="userSpaceOnUse"
       id="clipPath36">
      <path
         d="M 0,1080 H 1080 V 0 H 0 Z"
         transform="translate(-844.82125,-300.26408)"
         id="path36" />
    </clipPath>
  </defs>
  <sodipodi:namedview
     id="namedview1"
     pagecolor="#505050"
     bordercolor="#eeeeee"
     borderopacity="1"
     inkscape:showpageshadow="0"
     inkscape:pageopacity="0"
     inkscape:pagecheckerboard="0"
     inkscape:deskcolor="#505050">
    <inkscape:page
       x="0"
       y="0"
       inkscape:label="1"
       id="page1"
       width="1440"
       height="1440"
       margin="350.74133 173.71201"
       bleed="0" />
  </sodipodi:namedview>
  <g
     id="g1"
     inkscape:groupmode="layer"
     inkscape:label="1">
    <path
       id="path1"
       d="m 0,0 h -15.867 c 1.015,-4 1.972,-8.173 2.89,-12.422 H 3.234 C 2.258,-8.326 1.167,-4.153 0,0 m 291.842,-213.159 v -41.628 h -479.564 c -4.785,-4.747 -10.163,-8.9 -16.077,-12.422 h 508.35 v 54.05 z m -545.94,-41.628 12.019,-12.422 c 12.766,1.703 24.403,5.971 34.279,12.422 z m -251.553,175.128 h 6.163 v 14.489 h -6.163 z m 241.676,-183.205 -7.789,8.077 h -227.724 v 41.628 h -12.709 v -54.05 h 252.414 z m -248.222,62.414 h 12.709 v 14.489 h -12.709 z M -28.977,0 h -483.22 v -52.462 h 12.709 v 40.04 H -25.992 C -26.949,-8.134 -27.944,-4 -28.977,0 m 278.214,0 5.378,-5.493 -6.928,-6.929 h 44.155 V -61.17 c 5.014,-5.532 9.302,-11.733 12.709,-18.489 V 0 Z m -13.379,0 h -30.7 l -5.302,-5.416 7.006,-7.006 h 27.293 l 7.005,7.006 z m 55.984,-82.779 V -200.45 h 9.914 v 78.205 c 0,14.967 -3.598,28.25 -9.914,39.466 M 30.796,0 c -1.971,-4.096 -3.828,-8.268 -5.57,-12.422 h 14.297 c 1.589,4.345 3.159,8.422 4.709,12.192 2.163,0.039 4.249,0.134 6.316,0.23 z"
       style="fill:#ffffff;fill-opacity:1;fill-rule:nonzero;stroke:none"
       transform="matrix(1.3333333,0,0,-1.3333333,860.22053,618.73253)"
       clip-path="url(#clipPath2)" />
    <path
       id="path3"
       d="M 0,0 -20.652,-20.652 -34.298,-7.005 -41.304,0 l 5.302,5.416 15.35,15.657 15.35,-15.657 z"
       style="fill:#ffffff;fill-opacity:1;fill-rule:nonzero;stroke:none"
       transform="matrix(1.3333333,0,0,-1.3333333,1181.7672,625.95453)"
       clip-path="url(#clipPath4)" />
    <path
       id="path5"
       d="m 0,0 c 1.112,33.748 13.759,68.321 76.71,86.212 35.623,10.137 49.033,18.304 54.085,22.816 1.844,1.685 2.575,2.828 2.829,3.432 l 0.158,0.191 C 134.132,32.635 65.429,17.891 47.412,15.38 44.71,14.999 43.153,14.904 43.153,14.904 63.618,58.502 113.541,85.894 115.098,86.721 67.876,73.374 37.656,37.497 18.399,-2.923 c -1.97,-4.1 -3.814,-8.262 -5.561,-12.426 -2.034,-4.893 -3.941,-9.819 -5.688,-14.744 -0.699,-2.002 -1.398,-4.004 -2.066,-6.006 -0.445,-1.303 -0.858,-2.606 -1.271,-3.909 -0.191,-0.572 -0.382,-1.144 -0.54,-1.716 -0.095,-0.286 -0.191,-0.604 -0.286,-0.921 -1.049,-3.4 -2.193,-7.246 -2.892,-10.105 l 1.176,-1.208 5.593,-5.688 3.146,-3.241 2.796,-2.86 c 4.131,19.447 9.247,36.385 14.332,50.398 1.589,4.354 3.146,8.422 4.703,12.203 2.161,0.032 4.258,0.127 6.323,0.223 C 182.052,4.195 140.201,148.083 140.201,148.083 135.943,108.075 92.726,117.163 35.654,91.01 18.876,83.32 8.866,72.039 3.114,59.964 -1.272,50.749 -3.21,41.056 -3.813,32.127 -4.354,23.452 -3.687,15.476 -2.733,9.343 -1.78,6.228 -0.858,3.083 0,0"
       style="fill:#ffffff;fill-opacity:1;fill-rule:nonzero;stroke:none"
       transform="matrix(1.3333333,0,0,-1.3333333,876.73987,614.83293)"
       clip-path="url(#clipPath6)" />
    <path
       id="path7"
       d="m 0,0 c 5.371,-13.219 11.217,-29.966 16.111,-49.763 1.017,-4.004 1.97,-8.167 2.892,-12.425 2.955,-13.728 5.37,-28.695 6.959,-44.838 l 15.326,15.571 -0.775,4.175 c 0.012,0.039 0.023,0.076 0.035,0.115 -0.286,1.652 -0.604,3.305 -0.953,4.989 -0.105,0.552 -0.232,1.125 -0.342,1.681 l -0.196,1.056 -0.013,-0.024 c -0.228,1.127 -0.441,2.241 -0.689,3.388 -0.667,3.178 -1.366,6.451 -2.161,9.724 -0.286,1.366 -0.635,2.765 -0.985,4.163 -0.985,4.099 -2.065,8.262 -3.241,12.425 -0.858,3.05 -1.748,6.133 -2.733,9.215 -17.033,55.134 -49.732,112.683 -112.524,130.446 0,0 51.194,-27.551 71.976,-71.848 0,0 -1.557,0.127 -4.258,0.476 -18.018,2.511 -86.721,17.287 -86.371,97.303 0.032,-0.096 0.096,-0.159 0.127,-0.223 0.286,-0.572 1.017,-1.748 2.86,-3.432 5.053,-4.512 18.463,-12.679 54.085,-22.816 C 15.444,72.23 29.585,39.785 31.651,7.404 c 0.158,-2.383 0.253,-4.766 0.285,-7.118 0,0 2.098,6.61 3.21,16.524 2.446,21.768 0.286,59.392 -38.96,77.346 -57.072,26.153 -100.289,17.065 -104.547,57.073 0,0 -43.058,-148.051 108.361,-151.229"
       style="fill:#ffffff;fill-opacity:1;fill-rule:nonzero;stroke:none"
       transform="matrix(1.3333333,0,0,-1.3333333,817.5912,552.37987)"
       clip-path="url(#clipPath8)" />
    <path
       id="path9"
       d="M 0,0 H -61.489 V -14.491 H 0 c 15.825,0 47.889,-2.192 47.889,-52.686 v -46.141 c 0,-2.638 0.445,-5.275 1.334,-7.468 H -68.035 v -14.49 H 37.784 l 11.853,12.742 c 3.527,-7.467 10.995,-12.742 20.21,-12.742 h 10.995 v 68.099 C 80.842,-19.765 47.444,0 0,0"
       style="fill:#ffffff;fill-opacity:1;fill-rule:nonzero;stroke:none"
       transform="matrix(1.3333333,0,0,-1.3333333,268.01147,705.63147)"
       clip-path="url(#clipPath10)" />
    <path
       id="path11"
       d="m 0,0 c -15.809,0 -47.868,9.225 -47.868,63.716 0,54.472 32.059,63.678 47.868,63.678 16.269,0 47.888,-9.206 47.888,-63.678 V 7.464 c 0,-2.641 0.44,-5.263 1.301,-7.464 z m -427.447,0 h -47.887 c -16.231,0 -47.888,9.225 -47.888,63.716 0,54.472 31.657,63.678 47.888,63.678 15.828,0 47.887,-9.206 47.887,-63.678 z M 71.334,103.182 c -13.723,24.269 -40.366,38.7 -71.334,38.7 -44.806,0 -80.827,-30.757 -80.827,-78.166 C -80.827,35.6 -68.08,13.627 -48.749,0 h -149.366 v 75.793 h 0.077 c 0.115,4.44 0.382,9.283 0.823,13.685 l -16.441,-16.422 -6.737,6.737 -11.121,11.082 V 7.464 c 0,-2.641 0.46,-5.263 1.34,-7.464 h -164.352 v 63.716 c 0,47.409 -36.002,78.166 -80.808,78.166 -45.246,0 -81.248,-30.757 -81.248,-78.166 0,-47.447 36.002,-78.205 81.248,-78.205 h 36.442 l 11.445,12.288 v -0.88 c 0,-54.874 -31.657,-64.98 -47.887,-64.98 l 0.727,-0.765 12.02,-12.422 c 12.766,1.703 24.403,5.972 34.279,12.422 17.934,11.694 30.088,30.527 32.92,54.337 h 154.285 l 0.479,1.015 11.311,11.732 c 3.522,-7.464 11.446,-12.747 19.772,-12.747 H 38.222 l 11.847,12.747 c 3.522,-7.464 11.408,-12.747 19.772,-12.747 h 11.407 v 78.205 c 0,14.967 -3.598,28.25 -9.914,39.466"
       style="fill:#ffffff;fill-opacity:1;fill-rule:nonzero;stroke:none"
       transform="matrix(1.3333333,0,0,-1.3333333,1154.2315,866.6808)"
       clip-path="url(#clipPath12)" />
    <path
       id="path13"
       d="M 0,0 -0.858,-0.89 -17.7,-18.05 -20.655,-21.068 0,-41.724 l 19.766,19.766 0.889,0.89 -18.748,19.13 z"
       style="fill:#ffffff;fill-opacity:1;fill-rule:nonzero;stroke:none"
       transform="matrix(1.3333333,0,0,-1.3333333,869.36707,695.67467)"
       clip-path="url(#clipPath14)" />
    <path
       id="path15"
       d="m 0,0 c 0,3.505 -1.234,6.747 -3.699,9.735 -2.467,2.984 -4.867,4.478 -7.203,4.478 -1.3,0 -2.306,-0.457 -3.019,-1.363 -0.714,-0.91 -1.07,-1.819 -1.07,-2.725 0,-2.857 1.622,-5.841 4.867,-8.956 l 8.568,-6.62 C -0.52,-2.856 0,-1.04 0,0 m 14.603,-22 c 0,-2.208 -0.194,-4.478 -0.585,-6.814 -0.389,-2.337 -0.778,-4.673 -1.167,-7.009 l -16.16,9.734 c -6.491,-7.139 -10.904,-11.876 -13.24,-14.212 -9.607,-9.345 -17.653,-14.018 -24.141,-14.018 h -14.213 c 6.877,3.243 14.925,8.499 24.142,15.77 8.304,6.62 14.602,12.46 18.885,17.523 -4.025,2.463 -7.076,5.062 -9.15,7.787 -2.598,3.374 -3.894,7.073 -3.894,11.097 0,8.567 2.497,16.127 7.496,22.683 4.994,6.552 10.416,9.832 16.257,9.832 3.374,0 6.424,-1.82 9.149,-5.452 2.727,-3.635 4.089,-8.049 4.089,-13.239 0,-2.467 -0.359,-5.032 -1.07,-7.691 -0.714,-2.661 -2.37,-7.562 -4.966,-14.699 2.077,-1.819 4.218,-3.572 6.427,-5.256 1.425,-1.431 2.141,-3.441 2.141,-6.036"
       style="fill:#ffffff;fill-opacity:1;fill-rule:nonzero;stroke:none"
       transform="matrix(1.3333333,0,0,-1.3333333,1090.9156,613.90933)"
       clip-path="url(#clipPath16)" />
    <path
       id="path17"
       d="m 0,0 c -0.664,0.285 -1.212,0.651 -1.642,1.093 -0.43,0.445 -0.749,0.938 -0.957,1.486 -0.209,0.548 -0.313,1.12 -0.313,1.72 0,0.626 0.117,1.232 0.352,1.818 0.234,0.586 0.593,1.106 1.074,1.562 0.483,0.456 1.089,0.828 1.818,1.116 0.73,0.285 1.603,0.428 2.619,0.428 L 15.693,9.185 v 8.402 H 2.951 c -2.345,0 -4.404,-0.384 -6.176,-1.151 -1.772,-0.77 -3.251,-1.78 -4.436,-3.031 -1.186,-1.25 -2.085,-2.671 -2.697,-4.26 -0.613,-1.589 -0.918,-3.206 -0.918,-4.846 0,-0.835 0.071,-1.655 0.214,-2.463 0.144,-0.808 0.372,-1.589 0.685,-2.346 h -4.339 V -8.911 H 16.748 V -0.51 H 2.404 C 1.466,-0.458 0.664,-0.287 0,0"
       style="fill:#ffffff;fill-opacity:1;fill-rule:nonzero;stroke:none"
       transform="matrix(1.3333333,0,0,-1.3333333,193.33347,1051.7363)"
       clip-path="url(#clipPath18)" />
    <path
       id="path19"
       d="m 171.051,282.363 h 8.365 v 47.138 h -8.365 z"
       style="fill:#ffffff;fill-opacity:1;fill-rule:nonzero;stroke:none"
       transform="matrix(1.3333333,0,0,-1.3333333,0,1440)"
       clip-path="url(#clipPath20)" />
    <path
       id="path21"
       d="m 0,0 c 0.404,-0.404 0.88,-0.723 1.426,-0.956 0.548,-0.236 1.134,-0.353 1.759,-0.353 0.626,0 1.218,0.117 1.779,0.353 0.56,0.233 1.042,0.552 1.446,0.956 0.404,0.404 0.724,0.88 0.958,1.428 0.235,0.547 0.351,1.133 0.351,1.757 0,0.626 -0.116,1.219 -0.351,1.78 C 7.134,5.524 6.814,6.007 6.41,6.411 6.006,6.815 5.524,7.134 4.964,7.369 4.403,7.603 3.811,7.719 3.185,7.719 2.56,7.719 1.974,7.603 1.426,7.369 0.88,7.134 0.404,6.815 0,6.411 -0.404,6.007 -0.723,5.524 -0.957,4.965 -1.192,4.404 -1.31,3.811 -1.31,3.185 -1.31,2.561 -1.192,1.975 -0.957,1.428 -0.723,0.88 -0.404,0.404 0,0"
       style="fill:#ffffff;fill-opacity:1;fill-rule:nonzero;stroke:none"
       transform="matrix(1.3333333,0,0,-1.3333333,359.58387,1011.4277)"
       clip-path="url(#clipPath22)" />
    <path
       id="path23"
       d="m 0,0 c 0.404,-0.406 0.88,-0.725 1.427,-0.958 0.547,-0.236 1.133,-0.353 1.758,-0.353 0.626,0 1.218,0.117 1.779,0.353 0.56,0.233 1.042,0.552 1.446,0.958 0.404,0.402 0.724,0.878 0.958,1.425 0.235,0.548 0.351,1.134 0.351,1.76 0,0.624 -0.116,1.217 -0.351,1.778 C 7.134,5.522 6.814,6.005 6.41,6.409 6.006,6.813 5.524,7.131 4.964,7.367 4.403,7.6 3.811,7.719 3.185,7.719 2.56,7.719 1.974,7.6 1.427,7.367 0.88,7.131 0.404,6.813 0,6.409 -0.404,6.005 -0.723,5.522 -0.957,4.963 -1.192,4.402 -1.309,3.809 -1.309,3.185 c 0,-0.626 0.117,-1.212 0.352,-1.76 C -0.723,0.878 -0.404,0.402 0,0"
       style="fill:#ffffff;fill-opacity:1;fill-rule:nonzero;stroke:none"
       transform="matrix(1.3333333,0,0,-1.3333333,466.24827,1011.5295)"
       clip-path="url(#clipPath24)" />
    <path
       id="path25"
       d="m 0,0 v 7.583 c 0.052,1.537 0.404,2.873 1.055,4.006 0.651,1.134 1.505,2.072 2.56,2.815 1.056,0.743 2.26,1.295 3.616,1.661 1.355,0.364 2.761,0.548 4.221,0.548 0.104,0 1.055,-0.007 2.853,-0.02 1.798,-0.014 4.638,-0.045 8.521,-0.099 V 0 Z M 167.055,38.813 H 158.69 V 0 h -4.738 -2.766 -31.438 -6.293 c -0.104,3.363 -0.488,6.274 -1.152,8.736 -0.665,2.463 -1.538,4.573 -2.619,6.333 -1.082,1.757 -2.325,3.205 -3.733,4.339 -1.407,1.133 -2.911,2.038 -4.514,2.716 -1.602,0.678 -3.263,1.178 -4.984,1.504 -1.719,0.325 -3.433,0.554 -5.139,0.684 -1.707,0.13 -3.368,0.216 -4.983,0.254 -1.617,0.04 -3.115,0.123 -4.495,0.253 l -0.704,-8.363 c 1.199,-0.079 2.599,-0.11 4.202,-0.097 1.603,0.012 3.257,-0.074 4.964,-0.256 1.706,-0.181 3.406,-0.541 5.1,-1.075 1.694,-0.534 3.231,-1.4 4.613,-2.597 1.38,-1.201 2.526,-2.795 3.439,-4.788 0.912,-1.995 1.446,-4.541 1.602,-7.643 H 74.995 36.897 31.229 v 20.678 c 0,0.572 -0.111,1.107 -0.332,1.603 -0.221,0.494 -0.521,0.929 -0.899,1.308 -0.378,0.378 -0.82,0.678 -1.329,0.898 -0.508,0.223 -1.049,0.332 -1.622,0.332 l -15.399,0.158 c -1.46,0 -2.834,-0.189 -4.124,-0.566 C 6.235,24.032 5.081,23.518 4.065,22.867 3.048,22.213 2.189,21.452 1.485,20.579 0.781,19.706 0.286,18.788 0,17.823 v 6.763 H -8.365 V 0 h -6.683 -33.384 -5.785 c 0.079,1.643 0.118,3.284 0.118,4.925 0,2.736 -0.066,5.349 -0.195,7.838 -0.132,2.487 -0.197,4.775 -0.197,6.858 h -8.364 c 0,-2.007 0.052,-4.254 0.156,-6.741 0.105,-2.489 0.156,-5.037 0.156,-7.641 0,-1.93 -0.051,-3.876 -0.156,-5.845 -0.104,-1.966 -0.318,-3.856 -0.645,-5.666 -0.325,-1.811 -0.814,-3.506 -1.465,-5.082 -0.652,-1.575 -1.518,-2.951 -2.599,-4.123 -1.082,-1.172 -2.423,-2.092 -4.026,-2.757 -1.602,-0.664 -3.525,-0.996 -5.765,-0.996 v -8.402 c 3.464,0 6.449,0.494 8.95,1.484 2.502,0.992 4.619,2.352 6.352,4.085 1.733,1.733 3.127,3.771 4.182,6.117 1.056,2.345 1.869,4.86 2.443,7.544 h 3.608 3.232 33.384 51.945 38.098 44.753 31.438 11.686 c 0.574,0 1.115,0.11 1.623,0.332 0.507,0.22 0.957,0.521 1.348,0.898 0.391,0.377 0.697,0.822 0.918,1.329 0.221,0.51 0.332,1.048 0.332,1.623 0,0.155 -0.013,0.285 -0.038,0.391 z"
       style="fill:#ffffff;fill-opacity:1;fill-rule:nonzero;stroke:none"
       transform="matrix(1.3333333,0,0,-1.3333333,349.0308,1052.4157)"
       clip-path="url(#clipPath26)" />
    <path
       id="path27"
       d="m 437.896,282.363 h 8.365 v 47.138 h -8.365 z"
       style="fill:#ffffff;fill-opacity:1;fill-rule:nonzero;stroke:none"
       transform="matrix(1.3333333,0,0,-1.3333333,0,1440)"
       clip-path="url(#clipPath28)" />
    <path
       id="path29"
       d="m 0,0 c 0.404,-0.404 0.88,-0.723 1.427,-0.958 0.547,-0.234 1.133,-0.353 1.758,-0.353 0.626,0 1.218,0.119 1.779,0.353 0.56,0.235 1.042,0.554 1.446,0.958 0.404,0.404 0.724,0.88 0.958,1.425 0.235,0.548 0.351,1.134 0.351,1.76 0,0.624 -0.116,1.217 -0.351,1.778 C 7.134,5.524 6.814,6.005 6.41,6.409 6.006,6.813 5.524,7.134 4.964,7.367 4.403,7.603 3.811,7.719 3.185,7.719 2.56,7.719 1.974,7.603 1.427,7.367 0.88,7.134 0.404,6.813 0,6.409 -0.404,6.005 -0.723,5.524 -0.957,4.963 -1.192,4.402 -1.31,3.809 -1.31,3.185 -1.31,2.559 -1.192,1.973 -0.957,1.425 -0.723,0.88 -0.404,0.404 0,0"
       style="fill:#ffffff;fill-opacity:1;fill-rule:nonzero;stroke:none"
       transform="matrix(1.3333333,0,0,-1.3333333,650.68813,1015.5429)"
       clip-path="url(#clipPath30)" />
    <path
       id="path31"
       d="m 0,0 c 0.404,-0.404 0.88,-0.723 1.427,-0.958 0.547,-0.234 1.133,-0.353 1.759,-0.353 0.625,0 1.218,0.119 1.778,0.353 0.56,0.235 1.042,0.554 1.447,0.958 0.403,0.404 0.723,0.88 0.957,1.425 0.235,0.548 0.351,1.134 0.351,1.76 0,0.624 -0.116,1.217 -0.351,1.778 C 7.134,5.524 6.814,6.005 6.411,6.409 6.006,6.813 5.524,7.134 4.964,7.367 4.404,7.603 3.811,7.719 3.186,7.719 2.56,7.719 1.974,7.603 1.427,7.367 0.88,7.134 0.404,6.813 0,6.409 -0.404,6.005 -0.723,5.524 -0.957,4.963 -1.192,4.402 -1.309,3.809 -1.309,3.185 c 0,-0.626 0.117,-1.212 0.352,-1.76 C -0.723,0.88 -0.404,0.404 0,0"
       style="fill:#ffffff;fill-opacity:1;fill-rule:nonzero;stroke:none"
       transform="matrix(1.3333333,0,0,-1.3333333,664.65453,1015.5429)"
       clip-path="url(#clipPath32)" />
    <path
       id="path33"
       d="m 0,0 -20.363,-0.038 c -1.486,0.025 -2.703,0.227 -3.655,0.606 -0.951,0.377 -1.694,0.873 -2.228,1.486 -0.534,0.61 -0.899,1.329 -1.094,2.148 -0.196,0.822 -0.293,1.702 -0.293,2.64 0,1.484 0.182,2.925 0.547,4.319 0.365,1.394 0.795,2.572 1.29,3.535 l -7.426,3.87 c -0.365,-0.703 -0.718,-1.497 -1.055,-2.384 -0.339,-0.887 -0.639,-1.832 -0.899,-2.833 -0.262,-1.003 -0.464,-2.047 -0.607,-3.127 -0.143,-1.082 -0.214,-2.17 -0.214,-3.263 0,-1.877 0.266,-3.733 0.8,-5.57 0.535,-1.838 1.428,-3.479 2.678,-4.924 1.251,-1.448 2.898,-2.62 4.944,-3.52 2.046,-0.898 4.579,-1.347 7.603,-1.347 H 4.183 c 0.572,0 1.113,0.11 1.622,0.332 0.508,0.22 0.95,0.521 1.329,0.898 0.377,0.377 0.677,0.822 0.899,1.329 0.221,0.51 0.332,1.048 0.332,1.623 V 23.686 H 0 Z"
       style="fill:#ffffff;fill-opacity:1;fill-rule:nonzero;stroke:none"
       transform="matrix(1.3333333,0,0,-1.3333333,679.63707,1052.4157)"
       clip-path="url(#clipPath34)" />
    <path
       id="path35"
       d="m 0,0 c 0,0.887 0.195,1.753 0.587,2.599 0.391,0.847 0.918,1.596 1.582,2.25 0.665,0.65 1.42,1.178 2.268,1.582 0.846,0.404 1.712,0.606 2.599,0.606 H 7.231 C 7.335,7.037 7.627,7.03 8.11,7.017 8.593,7.003 9.348,6.99 10.377,6.979 11.406,6.965 12.898,6.945 14.853,6.918 V -9.576 H 0 Z m -183.799,-9.576 v 7.583 c 0.051,1.537 0.404,2.873 1.055,4.006 0.651,1.134 1.505,2.072 2.56,2.815 1.056,0.743 2.26,1.296 3.616,1.661 1.355,0.364 2.761,0.548 4.221,0.548 0.103,0 1.055,-0.007 2.853,-0.02 1.798,-0.014 4.638,-0.045 8.521,-0.099 V -9.576 Z m 284.997,-3.829 V 29.237 H 92.833 V -9.576 H 86.073 85.329 78.927 78.92 V 29.237 H 70.555 V -9.576 H 62.816 29.159 23.256 v 20.678 c 0,0.573 -0.111,1.107 -0.332,1.603 -0.221,0.494 -0.522,0.929 -0.899,1.309 -0.378,0.377 -0.821,0.677 -1.329,0.897 -0.508,0.223 -1.049,0.333 -1.622,0.333 L 7.231,15.401 C 5.771,15.452 4.378,15.277 3.049,14.873 1.719,14.469 0.475,13.901 -0.683,13.172 -1.844,12.442 -2.899,11.571 -3.85,10.555 -4.801,9.538 -5.615,8.445 -6.293,7.271 -6.971,6.099 -7.492,4.887 -7.856,3.636 -8.221,2.386 -8.403,1.16 -8.403,-0.038 v -9.538 h -6.449 -40.71 -6.332 V 14.11 h -8.364 V -9.576 h -8.794 V 14.11 h -8.364 V -9.576 h -8.755 V 14.11 h -8.404 V -9.576 h -4.896 -1.475 -35.956 -5.668 v 20.678 c 0,0.573 -0.111,1.107 -0.332,1.603 -0.221,0.494 -0.521,0.929 -0.899,1.309 -0.379,0.377 -0.821,0.677 -1.329,0.897 -0.509,0.223 -1.05,0.333 -1.622,0.333 l -15.4,0.157 c -1.46,0 -2.834,-0.189 -4.123,-0.566 -1.29,-0.379 -2.443,-0.893 -3.459,-1.544 -1.017,-0.653 -1.877,-1.414 -2.58,-2.288 -0.704,-0.873 -1.199,-1.791 -1.485,-2.756 v 20.99 h -8.365 V -9.576 h -6.684 -31.28 -6.293 c -0.105,3.363 -0.489,6.274 -1.153,8.736 -0.665,2.463 -1.538,4.573 -2.619,6.333 -1.081,1.757 -2.325,3.205 -3.732,4.339 -1.408,1.133 -2.912,2.038 -4.515,2.716 -1.602,0.678 -3.263,1.178 -4.984,1.504 -1.719,0.325 -3.433,0.554 -5.139,0.684 -1.707,0.131 -3.368,0.216 -4.983,0.254 -1.616,0.04 -3.115,0.123 -4.495,0.254 l -0.704,-8.364 c 1.199,-0.079 2.599,-0.11 4.202,-0.097 1.603,0.012 3.257,-0.074 4.964,-0.255 1.706,-0.182 3.407,-0.541 5.1,-1.076 1.694,-0.534 3.231,-1.4 4.613,-2.597 1.38,-1.201 2.526,-2.794 3.439,-4.788 0.912,-1.995 1.447,-4.541 1.603,-7.643 h -30.058 -28.746 -7.701 v 38.813 h -8.364 v -42.642 c -0.026,-0.106 -0.039,-0.236 -0.039,-0.391 0,-0.574 0.11,-1.113 0.332,-1.623 0.221,-0.507 0.528,-0.951 0.918,-1.329 0.391,-0.377 0.841,-0.677 1.349,-0.897 0.508,-0.223 1.049,-0.333 1.622,-0.333 h 11.883 28.746 44.754 31.28 51.946 35.956 10.592 c 0.912,0 1.733,0.267 2.462,0.802 0.73,0.532 1.238,1.216 1.525,2.051 v -2.853 h 13.133 c 0.938,0 1.764,0.267 2.481,0.802 0.717,0.532 1.218,1.216 1.506,2.051 v -2.853 h 23.685 v 0.046 c 8.227,0.059 23.644,0.163 40.71,0.247 v -0.293 h 44.011 v 0.423 c 18.697,0.002 33.004,-0.103 33.657,-0.423 h 22.513 0.744 10.942 c 0.574,0 1.115,0.11 1.623,0.333 0.508,0.22 0.958,0.52 1.348,0.897 0.391,0.378 0.697,0.822 0.918,1.329 0.221,0.51 0.332,1.049 0.332,1.623 0,0.155 -0.013,0.285 -0.038,0.391"
       style="fill:#ffffff;fill-opacity:1;fill-rule:nonzero;stroke:none"
       transform="matrix(1.3333333,0,0,-1.3333333,1126.4283,1039.6479)"
       clip-path="url(#clipPath36)" />
  </g>
</svg>
