<?xml version="1.0" encoding="UTF-8" standalone="no"?>
<!-- Created with Inkscape (http://www.inkscape.org/) -->

<svg
   version="1.1"
   id="svg1"
   width="334.62534"
   height="135.64"
   viewBox="0 0 334.62534 135.64"
   sodipodi:docname="goowd.pdf"
   inkscape:export-filename="../d6c04a61/.svg"
   inkscape:export-xdpi="96"
   inkscape:export-ydpi="96"
   xmlns:inkscape="http://www.inkscape.org/namespaces/inkscape"
   xmlns:sodipodi="http://sodipodi.sourceforge.net/DTD/sodipodi-0.dtd"
   xmlns="http://www.w3.org/2000/svg"
   xmlns:svg="http://www.w3.org/2000/svg">
  <defs
     id="defs1">
    <clipPath
       clipPathUnits="userSpaceOnUse"
       id="clipPath3">
      <path
         d="M 0,101.73 H 250.969 V 0 H 0 Z"
         transform="translate(-32.631801,-65.982802)"
         id="path3" />
    </clipPath>
    <clipPath
       clipPathUnits="userSpaceOnUse"
       id="clipPath5">
      <path
         d="M 0,101.73 H 250.969 V 0 H 0 Z"
         transform="translate(-71.416902,-80.037502)"
         id="path5" />
    </clipPath>
    <clipPath
       clipPathUnits="userSpaceOnUse"
       id="clipPath7">
      <path
         d="M 0,101.73 H 250.969 V 0 H 0 Z"
         transform="translate(-69.719102,-55.763701)"
         id="path7" />
    </clipPath>
    <clipPath
       clipPathUnits="userSpaceOnUse"
       id="clipPath9">
      <path
         d="M 0,101.73 H 250.969 V 0 H 0 Z"
         transform="translate(-32.761401,-80.453302)"
         id="path9" />
    </clipPath>
    <clipPath
       clipPathUnits="userSpaceOnUse"
       id="clipPath11">
      <path
         d="M 0,101.73 H 250.969 V 0 H 0 Z"
         transform="translate(-81.310802,-34.868901)"
         id="path11" />
    </clipPath>
    <clipPath
       clipPathUnits="userSpaceOnUse"
       id="clipPath13">
      <path
         d="M 0,101.73 H 250.969 V 0 H 0 Z"
         transform="translate(-95.882702,-35.426501)"
         id="path13" />
    </clipPath>
    <clipPath
       clipPathUnits="userSpaceOnUse"
       id="clipPath15">
      <path
         d="M 0,101.73 H 250.969 V 0 H 0 Z"
         transform="translate(-108.9495,-35.417401)"
         id="path15" />
    </clipPath>
    <clipPath
       clipPathUnits="userSpaceOnUse"
       id="clipPath17">
      <path
         d="M 0,101.73 H 250.969 V 0 H 0 Z"
         transform="translate(-125.22021,-30.733501)"
         id="path17" />
    </clipPath>
    <clipPath
       clipPathUnits="userSpaceOnUse"
       id="clipPath19">
      <path
         d="M 0,101.73 H 250.969 V 0 H 0 Z"
         transform="translate(-139.7356,-46.232401)"
         id="path19" />
    </clipPath>
    <clipPath
       clipPathUnits="userSpaceOnUse"
       id="clipPath21">
      <path
         d="M 0,101.73 H 250.969 V 0 H 0 Z"
         transform="translate(-154.87551,-46.232801)"
         id="path21" />
    </clipPath>
    <clipPath
       clipPathUnits="userSpaceOnUse"
       id="clipPath23">
      <path
         d="M 0,101.73 H 250.969 V 0 H 0 Z"
         transform="translate(-168.6202,-36.616301)"
         id="path23" />
    </clipPath>
    <clipPath
       clipPathUnits="userSpaceOnUse"
       id="clipPath25">
      <path
         d="M 0,101.73 H 250.969 V 0 H 0 Z"
         transform="translate(-176.2972,-29.061601)"
         id="path25" />
    </clipPath>
    <clipPath
       clipPathUnits="userSpaceOnUse"
       id="clipPath27">
      <path
         d="M 0,101.73 H 250.969 V 0 H 0 Z"
         transform="translate(-192.1929,-35.359901)"
         id="path27" />
    </clipPath>
    <clipPath
       clipPathUnits="userSpaceOnUse"
       id="clipPath29">
      <path
         d="M 0,101.73 H 250.969 V 0 H 0 Z"
         transform="translate(-196.3417,-41.613101)"
         id="path29" />
    </clipPath>
    <clipPath
       clipPathUnits="userSpaceOnUse"
       id="clipPath31">
      <path
         d="M 0,101.73 H 250.969 V 0 H 0 Z"
         transform="translate(-206.0908,-35.350301)"
         id="path31" />
    </clipPath>
    <clipPath
       clipPathUnits="userSpaceOnUse"
       id="clipPath33">
      <path
         d="M 0,101.73 H 250.969 V 0 H 0 Z"
         transform="translate(-217.53811,-41.598401)"
         id="path33" />
    </clipPath>
    <clipPath
       clipPathUnits="userSpaceOnUse"
       id="clipPath35">
      <path
         d="M 0,101.73 H 250.969 V 0 H 0 Z"
         transform="translate(-224.65971,-33.159001)"
         id="path35" />
    </clipPath>
    <clipPath
       clipPathUnits="userSpaceOnUse"
       id="clipPath37">
      <path
         d="M 0,101.73 H 250.969 V 0 H 0 Z"
         transform="translate(-82.5598,-58.223501)"
         id="path37" />
    </clipPath>
    <clipPath
       clipPathUnits="userSpaceOnUse"
       id="clipPath39">
      <path
         d="M 0,101.73 H 250.969 V 0 H 0 Z"
         transform="translate(-124.3071,-51.333802)"
         id="path39" />
    </clipPath>
    <clipPath
       clipPathUnits="userSpaceOnUse"
       id="clipPath41">
      <path
         d="M 0,101.73 H 250.969 V 0 H 0 Z"
         transform="translate(-101.1181,-61.151402)"
         id="path41" />
    </clipPath>
    <clipPath
       clipPathUnits="userSpaceOnUse"
       id="clipPath43">
      <path
         d="M 0,101.73 H 250.969 V 0 H 0 Z"
         transform="translate(-146.5155,-58.179301)"
         id="path43" />
    </clipPath>
    <clipPath
       clipPathUnits="userSpaceOnUse"
       id="clipPath45">
      <path
         d="M 0,101.73 H 250.969 V 0 H 0 Z"
         transform="translate(-202.387,-68.372102)"
         id="path45" />
    </clipPath>
  </defs>
  <sodipodi:namedview
     id="namedview1"
     pagecolor="#505050"
     bordercolor="#eeeeee"
     borderopacity="1"
     inkscape:showpageshadow="0"
     inkscape:pageopacity="0"
     inkscape:pagecheckerboard="0"
     inkscape:deskcolor="#505050">
    <inkscape:page
       x="0"
       y="0"
       inkscape:label="1"
       id="page1"
       width="334.62534"
       height="135.64"
       margin="17.318933 20.509333 17.3188 20.507999"
       bleed="0" />
  </sodipodi:namedview>
  <g
     id="layer-MC0"
     inkscape:groupmode="layer"
     inkscape:label="Layer 1">
    <path
       id="path1"
       d="M 0,0 -36.949,0.026 -36.943,8.703 0.006,8.677 Z"
       style="fill:#ffffff;fill-opacity:1;fill-rule:nonzero;stroke:none"
       transform="matrix(1.3333333,0,0,-1.3333333,96.855733,95.9104)" />
    <path
       id="path2"
       d="M 0,0 6.713,-0.005 -4.673,10.08 -15.924,-0.293 -8.74,-0.298 -8.77,-42.446 c 0,0 -0.001,-2.744 -3.749,-2.741 l -4.726,0.003 -0.006,-7.79 4.883,-0.003 c 0,0 12.331,-0.773 12.337,8.237 z"
       style="fill:#ffffff;fill-opacity:1;fill-rule:nonzero;stroke:none"
       transform="matrix(1.3333333,0,0,-1.3333333,43.509067,47.662933)"
       clip-path="url(#clipPath3)" />
    <path
       id="path4"
       d="M 0,0 -35.691,0.025 -35.685,8.703 0.006,8.679 Z"
       style="fill:#ffffff;fill-opacity:1;fill-rule:nonzero;stroke:none"
       transform="matrix(1.3333333,0,0,-1.3333333,95.222533,28.923333)"
       clip-path="url(#clipPath5)" />
    <path
       id="path6"
       d="M 0,0 -34.008,0.023 -34.002,8.699 0.006,8.675 Z"
       style="fill:#ffffff;fill-opacity:1;fill-rule:nonzero;stroke:none"
       transform="matrix(1.3333333,0,0,-1.3333333,92.9588,61.2884)"
       clip-path="url(#clipPath7)" />
    <path
       id="path8"
       d="M 0,0 -9.718,0.007 -9.713,8.013 0.006,8.006 Z"
       style="fill:#ffffff;fill-opacity:1;fill-rule:nonzero;stroke:none"
       transform="matrix(1.3333333,0,0,-1.3333333,43.681867,28.368933)"
       clip-path="url(#clipPath9)" />
    <path
       id="path10"
       d="m 0,0 2.35,-0.002 c 0,-0.465 0.004,-0.857 0.013,-1.168 0.008,-0.312 0.03,-0.575 0.064,-0.784 0.035,-0.213 0.085,-0.396 0.152,-0.548 0.066,-0.155 0.159,-0.307 0.283,-0.456 0.422,-0.618 1.075,-0.925 1.954,-0.926 0.272,0 0.533,0.039 0.786,0.117 0.25,0.081 0.476,0.198 0.679,0.357 0.202,0.158 0.374,0.352 0.516,0.58 0.14,0.229 0.235,0.492 0.29,0.792 0.079,0.379 0.12,0.954 0.121,1.728 L 7.216,11.423 9.617,11.422 9.609,-0.311 C 9.607,-2.089 9.33,-3.378 8.774,-4.178 8.352,-4.783 7.79,-5.248 7.091,-5.568 6.39,-5.889 5.615,-6.05 4.76,-6.049 c -0.596,0 -1.156,0.081 -1.676,0.24 -0.518,0.157 -0.981,0.382 -1.383,0.674 -0.405,0.289 -0.742,0.64 -1.012,1.049 -0.267,0.41 -0.445,0.865 -0.532,1.365 C 0.051,-2.157 -0.001,-1.249 0,0"
       style="fill:#ffffff;fill-opacity:1;fill-rule:nonzero;stroke:none"
       transform="matrix(1.3333333,0,0,-1.3333333,108.4144,89.148133)"
       clip-path="url(#clipPath11)" />
    <path
       id="path12"
       d="m 0,0 c -0.001,-0.723 0.073,-1.371 0.223,-1.948 0.15,-0.577 0.369,-1.067 0.658,-1.472 0.292,-0.405 0.644,-0.714 1.064,-0.932 0.415,-0.216 0.898,-0.323 1.445,-0.323 1.09,-0.001 1.926,0.408 2.508,1.226 0.581,0.818 0.872,1.988 0.873,3.51 0,0.713 -0.073,1.353 -0.223,1.922 C 6.398,2.548 6.179,3.027 5.889,3.415 5.598,3.803 5.244,4.099 4.826,4.306 4.408,4.513 3.932,4.618 3.396,4.618 2.304,4.619 1.465,4.217 0.879,3.419 0.293,2.618 0.001,1.478 0,0 m -2.296,0.002 c 10e-4,1.038 0.13,1.963 0.391,2.776 0.26,0.814 0.635,1.504 1.123,2.067 0.488,0.561 1.084,0.99 1.79,1.285 0.703,0.294 1.499,0.441 2.39,0.44 0.879,0 1.671,-0.149 2.374,-0.443 C 6.477,5.83 7.075,5.401 7.566,4.839 8.058,4.275 8.434,3.585 8.692,2.771 8.953,1.957 9.081,1.032 9.08,-0.006 9.079,-1.036 8.952,-1.956 8.697,-2.772 8.44,-3.586 8.067,-4.278 7.579,-4.85 7.091,-5.422 6.495,-5.859 5.789,-6.161 5.086,-6.465 4.285,-6.617 3.388,-6.616 c -0.89,0 -1.684,0.153 -2.382,0.458 -0.699,0.303 -1.295,0.739 -1.789,1.307 -0.491,0.569 -0.867,1.263 -1.125,2.082 -0.261,0.818 -0.389,1.741 -0.388,2.771"
       style="fill:#ffffff;fill-opacity:1;fill-rule:nonzero;stroke:none"
       transform="matrix(1.3333333,0,0,-1.3333333,127.8436,88.404667)"
       clip-path="url(#clipPath13)" />
    <path
       id="path14"
       d="m 0,0 c -0.001,-0.723 0.073,-1.371 0.223,-1.948 0.15,-0.577 0.369,-1.067 0.658,-1.472 0.292,-0.405 0.644,-0.714 1.064,-0.932 0.415,-0.216 0.898,-0.323 1.445,-0.323 1.09,-0.001 1.926,0.408 2.508,1.226 0.581,0.818 0.872,1.988 0.873,3.51 0,0.713 -0.073,1.353 -0.223,1.922 C 6.398,2.548 6.179,3.027 5.889,3.415 5.598,3.803 5.244,4.099 4.826,4.306 4.408,4.513 3.932,4.618 3.396,4.618 2.304,4.619 1.465,4.217 0.879,3.418 0.293,2.618 0.001,1.478 0,0 m -2.296,0.002 c 10e-4,1.038 0.13,1.963 0.391,2.776 0.26,0.814 0.635,1.504 1.123,2.067 0.488,0.561 1.084,0.99 1.79,1.285 0.703,0.294 1.499,0.441 2.39,0.44 0.879,0 1.671,-0.149 2.374,-0.443 C 6.477,5.83 7.075,5.401 7.566,4.839 8.058,4.275 8.434,3.585 8.692,2.771 8.953,1.957 9.081,1.032 9.08,-0.006 9.079,-1.036 8.952,-1.956 8.697,-2.772 8.44,-3.586 8.067,-4.278 7.579,-4.85 7.091,-5.422 6.495,-5.859 5.789,-6.161 5.086,-6.465 4.285,-6.617 3.388,-6.616 c -0.89,0 -1.684,0.153 -2.382,0.458 -0.699,0.303 -1.295,0.739 -1.789,1.307 -0.491,0.569 -0.867,1.263 -1.125,2.082 -0.261,0.818 -0.389,1.741 -0.388,2.771"
       style="fill:#ffffff;fill-opacity:1;fill-rule:nonzero;stroke:none"
       transform="matrix(1.3333333,0,0,-1.3333333,145.266,88.4168)"
       clip-path="url(#clipPath15)" />
    <path
       id="path16"
       d="M 0,0 C 1.029,-0.001 1.815,0.397 2.358,1.193 2.898,1.989 3.171,3.147 3.172,4.671 3.173,6.157 2.902,7.298 2.363,8.097 1.821,8.891 1.036,9.292 0.006,9.293 -1.032,9.294 -1.826,8.898 -2.378,8.113 -2.929,7.326 -3.204,6.179 -3.205,4.675 -3.206,3.151 -2.932,1.993 -2.382,1.196 -1.832,0.4 -1.038,0.001 0,0 M 3.043,9.646 3.047,15.533 5.21,15.531 5.198,-1.601 3.139,-1.6 3.141,-0.002 C 2.825,-0.381 2.528,-0.694 2.256,-0.946 1.984,-1.196 1.705,-1.394 1.424,-1.54 1.141,-1.683 0.845,-1.787 0.534,-1.848 0.221,-1.909 -0.13,-1.941 -0.517,-1.941 c -0.764,0.001 -1.454,0.153 -2.065,0.458 -0.612,0.303 -1.134,0.735 -1.568,1.294 -0.435,0.56 -0.77,1.233 -1.002,2.021 -0.235,0.788 -0.35,1.669 -0.349,2.646 0.001,1.004 0.125,1.92 0.372,2.751 0.246,0.831 0.595,1.547 1.044,2.145 0.449,0.599 0.989,1.064 1.618,1.399 0.629,0.332 1.326,0.499 2.092,0.499 0.344,-10e-4 0.659,-0.027 0.951,-0.079 C 0.865,11.14 1.142,11.049 1.407,10.922 1.67,10.794 1.933,10.626 2.199,10.419 2.462,10.212 2.743,9.955 3.043,9.646"
       style="fill:#ffffff;fill-opacity:1;fill-rule:nonzero;stroke:none"
       transform="matrix(1.3333333,0,0,-1.3333333,166.96027,94.662)"
       clip-path="url(#clipPath17)" />
    <path
       id="path18"
       d="m 0,0 12.34,-0.009 -10e-4,-2.137 -9.964,0.007 -0.003,-5.043 9.212,-0.006 -10e-4,-2.152 -9.213,0.006 -0.004,-5.635 10.083,-0.007 -10e-4,-2.152 -12.46,0.009 z"
       style="fill:#ffffff;fill-opacity:1;fill-rule:nonzero;stroke:none"
       transform="matrix(1.3333333,0,0,-1.3333333,186.31413,73.9968)"
       clip-path="url(#clipPath19)" />
    <path
       id="path20"
       d="m 0,0 2.165,-0.001 -0.011,-17.131 -2.166,0.001 z"
       style="fill:#ffffff;fill-opacity:1;fill-rule:nonzero;stroke:none"
       transform="matrix(1.3333333,0,0,-1.3333333,206.50067,73.996267)"
       clip-path="url(#clipPath21)" />
    <path
       id="path22"
       d="M 0,0 C 0,0.529 -0.082,1.001 -0.249,1.419 -0.417,1.837 -0.647,2.192 -0.943,2.482 -1.236,2.771 -1.589,2.994 -2.002,3.148 -2.418,3.303 -2.87,3.382 -3.362,3.382 -5.369,3.384 -6.53,2.257 -6.849,0.005 Z m 2.164,-1.954 -9.095,0.007 c -0.001,-1.295 0.305,-2.277 0.916,-2.952 0.612,-0.673 1.48,-1.011 2.607,-1.012 1.706,-0.001 2.754,0.838 3.142,2.518 L 1.991,-3.394 C 1.832,-4.097 1.59,-4.724 1.265,-5.274 0.938,-5.822 0.542,-6.29 0.076,-6.671 c -0.468,-0.382 -1,-0.676 -1.598,-0.878 -0.599,-0.202 -1.254,-0.301 -1.968,-0.301 -0.888,10e-4 -1.684,0.151 -2.387,0.457 -0.705,0.303 -1.303,0.74 -1.795,1.315 -0.493,0.571 -0.869,1.265 -1.134,2.08 -0.263,0.814 -0.395,1.734 -0.394,2.764 0,1.021 0.147,1.935 0.439,2.744 0.29,0.809 0.695,1.497 1.214,2.06 0.52,0.561 1.141,0.992 1.861,1.292 0.723,0.297 1.515,0.447 2.377,0.446 0.81,0 1.55,-0.129 2.224,-0.384 C -0.412,4.669 0.166,4.283 0.649,3.767 1.134,3.253 1.508,2.602 1.777,1.814 2.044,1.026 2.179,0.099 2.178,-0.963 Z"
       style="fill:#ffffff;fill-opacity:1;fill-rule:nonzero;stroke:none"
       transform="matrix(1.3333333,0,0,-1.3333333,224.82693,86.818267)"
       clip-path="url(#clipPath23)" />
    <path
       id="path24"
       d="M 0,0 -4.651,12.609 -2.381,12.607 1.136,2.506 4.588,12.602 6.858,12.601 2.244,-0.002 Z"
       style="fill:#ffffff;fill-opacity:1;fill-rule:nonzero;stroke:none"
       transform="matrix(1.3333333,0,0,-1.3333333,235.06293,96.8912)"
       clip-path="url(#clipPath25)" />
    <path
       id="path26"
       d="M 0,0 C -0.29,-0.046 -0.557,-0.085 -0.799,-0.119 -1.04,-0.154 -1.284,-0.191 -1.532,-0.23 -1.778,-0.271 -2.04,-0.316 -2.316,-0.368 -2.595,-0.42 -2.912,-0.488 -3.274,-0.566 -3.748,-0.679 -4.153,-0.8 -4.488,-0.928 -4.824,-1.054 -5.096,-1.202 -5.307,-1.37 c -0.211,-0.167 -0.364,-0.361 -0.455,-0.587 -0.092,-0.224 -0.14,-0.49 -0.14,-0.799 -10e-4,-0.605 0.195,-1.077 0.587,-1.412 0.391,-0.334 0.944,-0.502 1.655,-0.502 0.501,-0.001 0.976,0.08 1.42,0.236 0.444,0.159 0.831,0.369 1.162,0.633 0.329,0.265 0.59,0.572 0.787,0.924 0.193,0.35 0.29,0.725 0.29,1.121 z m -7.694,2.356 c 0,0.694 0.118,1.306 0.352,1.832 0.233,0.529 0.568,0.97 1.004,1.327 0.435,0.354 0.962,0.622 1.578,0.798 0.616,0.173 1.311,0.262 2.085,0.262 C -1.882,6.574 -1.188,6.506 -0.59,6.368 0.009,6.231 0.507,6.006 0.909,5.695 1.307,5.381 1.61,4.974 1.812,4.473 2.014,3.971 2.113,3.355 2.113,2.625 L 2.109,-3.355 C 2.108,-4.217 2.363,-4.648 2.874,-4.649 l 0.62,0.054 -0.001,-1.651 C 3.334,-6.299 3.195,-6.34 3.071,-6.37 2.947,-6.401 2.836,-6.429 2.733,-6.448 2.633,-6.472 2.538,-6.485 2.45,-6.49 2.361,-6.494 2.265,-6.496 2.161,-6.496 0.99,-6.495 0.32,-5.861 0.156,-4.592 c -1.216,-1.347 -2.65,-2.02 -4.304,-2.019 -0.608,0 -1.163,0.088 -1.663,0.26 -0.503,0.172 -0.931,0.421 -1.288,0.745 -0.354,0.327 -0.631,0.719 -0.824,1.176 -0.193,0.457 -0.289,0.977 -0.288,1.558 10e-4,1.574 0.696,2.688 2.087,3.338 0.951,0.439 2.584,0.79 4.898,1.052 l 1.253,0.171 0.001,0.607 c 0,0.457 -0.059,0.836 -0.178,1.136 C -0.269,3.73 -0.441,3.97 -0.672,4.151 -0.9,4.332 -1.181,4.46 -1.514,4.534 -1.849,4.609 -2.236,4.648 -2.676,4.648 -3.566,4.649 -4.25,4.458 -4.729,4.082 -5.21,3.703 -5.45,3.127 -5.45,2.354 Z"
       style="fill:#ffffff;fill-opacity:1;fill-rule:nonzero;stroke:none"
       transform="matrix(1.3333333,0,0,-1.3333333,256.2572,88.493467)"
       clip-path="url(#clipPath27)" />
    <path
       id="path28"
       d="M 0,0 1.65,-0.001 1.652,3.074 3.804,3.073 3.802,-0.003 5.887,-0.004 5.886,-1.826 3.801,-1.824 3.796,-9.426 c -10e-4,-0.301 0.019,-0.549 0.058,-0.747 0.039,-0.198 0.111,-0.355 0.217,-0.475 0.105,-0.119 0.246,-0.202 0.422,-0.25 0.176,-0.048 0.401,-0.074 0.673,-0.075 l 0.714,0.028 -0.002,-1.837 -1.61,-0.09 c -1.304,10e-4 -2.107,0.472 -2.415,1.414 -0.139,0.362 -0.21,1.091 -0.21,2.192 l 0.005,7.443 -1.649,10e-4 z"
       style="fill:#ffffff;fill-opacity:1;fill-rule:nonzero;stroke:none"
       transform="matrix(1.3333333,0,0,-1.3333333,261.78893,80.155867)"
       clip-path="url(#clipPath29)" />
    <path
       id="path30"
       d="m 0,0 c -0.001,-0.723 0.073,-1.371 0.223,-1.948 0.15,-0.577 0.369,-1.067 0.658,-1.472 0.292,-0.405 0.644,-0.714 1.064,-0.932 0.415,-0.216 0.898,-0.323 1.445,-0.323 1.09,-0.001 1.926,0.408 2.508,1.226 0.581,0.818 0.872,1.988 0.873,3.51 0,0.713 -0.073,1.353 -0.223,1.921 C 6.398,2.548 6.179,3.027 5.889,3.415 5.598,3.803 5.244,4.099 4.826,4.306 4.408,4.513 3.932,4.618 3.396,4.618 2.304,4.619 1.465,4.217 0.879,3.418 0.293,2.618 0.001,1.478 0,0 m -2.296,0.002 c 10e-4,1.038 0.13,1.963 0.391,2.776 0.26,0.814 0.635,1.504 1.123,2.067 0.488,0.561 1.084,0.99 1.79,1.285 0.703,0.293 1.499,0.441 2.39,0.44 0.879,0 1.671,-0.149 2.374,-0.443 C 6.477,5.83 7.075,5.401 7.566,4.839 8.058,4.275 8.434,3.585 8.692,2.771 8.953,1.957 9.081,1.032 9.08,-0.006 9.079,-1.036 8.952,-1.956 8.697,-2.772 8.44,-3.586 8.067,-4.278 7.579,-4.85 7.091,-5.422 6.495,-5.859 5.789,-6.161 5.086,-6.465 4.285,-6.617 3.388,-6.616 c -0.89,0 -1.684,0.153 -2.382,0.458 -0.699,0.303 -1.295,0.739 -1.789,1.307 -0.491,0.569 -0.867,1.263 -1.125,2.082 -0.261,0.818 -0.389,1.741 -0.388,2.771"
       style="fill:#ffffff;fill-opacity:1;fill-rule:nonzero;stroke:none"
       transform="matrix(1.3333333,0,0,-1.3333333,274.78773,88.506267)"
       clip-path="url(#clipPath31)" />
    <path
       id="path32"
       d="M 0,0 2.176,-0.002 2.175,-2.086 c 0.442,0.878 0.928,1.498 1.462,1.859 C 4.17,0.132 4.773,0.314 5.452,0.314 5.53,0.314 5.62,0.31 5.715,0.299 5.811,0.29 5.957,0.264 6.151,0.22 L 6.149,-2.089 5.463,-2.023 c -0.8,0 -1.477,-0.204 -2.033,-0.613 C 2.875,-3.045 2.509,-3.649 2.332,-4.45 2.245,-4.864 2.201,-5.484 2.2,-6.311 l -0.004,-6.229 -2.205,0.002 z"
       style="fill:#ffffff;fill-opacity:1;fill-rule:nonzero;stroke:none"
       transform="matrix(1.3333333,0,0,-1.3333333,290.0508,80.175467)"
       clip-path="url(#clipPath33)" />
    <path
       id="path34"
       d="m 0,0 2.283,-0.002 c 0,-0.246 0.006,-0.454 0.021,-0.626 0.011,-0.172 0.035,-0.323 0.065,-0.449 0.031,-0.128 0.079,-0.241 0.144,-0.344 0.067,-0.1 0.152,-0.204 0.259,-0.309 0.5,-0.512 1.261,-0.767 2.282,-0.768 0.818,0 1.474,0.165 1.968,0.495 0.492,0.329 0.738,0.77 0.739,1.325 0,0.263 -0.085,0.501 -0.257,0.714 C 7.332,0.245 7.008,0.457 6.534,0.67 L 2.589,1.9 C 1.136,2.561 0.412,3.63 0.413,5.108 0.413,5.645 0.529,6.137 0.758,6.585 0.986,7.033 1.307,7.418 1.716,7.74 2.125,8.062 2.615,8.31 3.188,8.486 3.76,8.659 4.394,8.748 5.088,8.748 5.773,8.747 6.4,8.662 6.962,8.496 7.525,8.328 8.01,8.08 8.419,7.749 8.828,7.42 9.146,7.004 9.369,6.507 9.593,6.011 9.706,5.432 9.706,4.77 L 7.501,4.772 c 0,0.39 -0.067,0.712 -0.204,0.971 C 7.16,6.004 6.975,6.211 6.742,6.37 6.51,6.529 6.242,6.645 5.937,6.714 5.633,6.784 5.319,6.821 4.993,6.822 4.669,6.822 4.362,6.783 4.077,6.709 3.791,6.635 3.541,6.529 3.323,6.392 3.108,6.255 2.936,6.094 2.809,5.905 2.681,5.715 2.618,5.511 2.617,5.291 2.617,4.606 2.978,4.124 3.698,3.852 L 7.367,2.715 C 7.815,2.521 8.207,2.325 8.542,2.125 8.877,1.929 9.155,1.709 9.379,1.465 9.603,1.223 9.773,0.953 9.886,0.653 10.001,0.354 10.057,0.006 10.057,-0.39 10.056,-0.969 9.941,-1.506 9.705,-2 9.474,-2.492 9.141,-2.918 8.708,-3.279 8.279,-3.638 7.75,-3.923 7.125,-4.129 6.5,-4.335 5.801,-4.439 5.027,-4.439 3.39,-4.438 2.143,-4.063 1.284,-3.313 0.427,-2.564 -0.001,-1.46 0,0"
       style="fill:#ffffff;fill-opacity:1;fill-rule:nonzero;stroke:none"
       transform="matrix(1.3333333,0,0,-1.3333333,299.54627,91.428)"
       clip-path="url(#clipPath35)" />
    <path
       id="path36"
       d="M 0,0 C -0.237,0 -0.459,0.046 -0.648,0.142 -0.853,0.251 -1.025,0.388 -1.149,0.564 -1.303,0.75 -1.421,0.961 -1.499,1.22 -1.583,1.468 -1.598,1.747 -1.583,2.029 l 10e-4,0.895 10.921,0.012 0.005,7.284 -8.91,0.007 c -0.201,0.026 -0.451,0.074 -0.699,0.146 -0.224,0.067 -0.413,0.17 -0.581,0.314 -0.172,0.148 -0.322,0.339 -0.441,0.601 -0.109,0.248 -0.156,0.581 -0.143,0.992 v 0.762 L 12.306,13.032 12.298,2.218 C 12.195,1.606 11.958,1.052 11.561,0.614 11.193,0.216 10.582,0.01 9.761,-0.007 Z"
       style="fill:#ffffff;fill-opacity:1;fill-rule:nonzero;stroke:none"
       transform="matrix(1.3333333,0,0,-1.3333333,110.07973,58.008667)"
       clip-path="url(#clipPath37)" />
    <path
       id="path38"
       d="m 0,0 c -0.446,0 -0.81,0.149 -1.103,0.447 -0.3,0.298 -0.437,0.673 -0.437,1.136 0,0.203 0.042,0.412 0.12,0.594 0.077,0.19 0.19,0.355 0.327,0.503 0.131,0.135 0.285,0.243 0.468,0.319 0.185,0.083 0.399,0.122 0.627,0.122 0.448,0 0.816,-0.155 1.11,-0.447 0.3,-0.303 0.45,-0.653 0.45,-1.093 C 1.561,1.348 1.52,1.146 1.444,0.941 1.361,0.759 1.254,0.589 1.11,0.445 0.96,0.3 0.805,0.193 0.614,0.119 0.427,0.037 0.229,0 0,0"
       style="fill:#ffffff;fill-opacity:1;fill-rule:nonzero;stroke:none"
       transform="matrix(1.3333333,0,0,-1.3333333,165.7428,67.194933)"
       clip-path="url(#clipPath39)" />
    <path
       id="path40"
       d="m 0,0 7.97,-0.006 0.005,7.285 -7.97,0.005 z m 4.404,-10.591 c 0.22,0.211 0.436,0.424 0.656,0.657 0.507,0.533 0.962,1.115 1.383,1.766 0.416,0.644 0.778,1.357 1.087,2.134 0.293,0.766 0.537,1.643 0.686,2.585 l 0.081,0.503 -10.227,0.007 c -0.423,0 -0.655,0.085 -0.816,0.244 -0.189,0.209 -0.276,0.588 -0.239,1.115 L -3,8.307 c 0.085,0.527 0.279,0.99 0.567,1.31 0.259,0.3 0.621,0.457 1.088,0.485 L 10.887,10.093 10.88,-0.008 29.307,-0.02 29.312,7.266 17.801,7.274 c -0.219,0.013 -0.448,0.055 -0.639,0.12 -0.183,0.059 -0.333,0.153 -0.464,0.29 -0.137,0.144 -0.241,0.34 -0.326,0.592 -0.078,0.268 -0.121,0.623 -0.11,1.049 v 0.764 l 15.942,-0.011 0.013,-10.49 C 32.118,-1.034 31.831,-1.591 31.334,-2.048 30.838,-2.509 30.171,-2.826 29.373,-2.965 L 11.226,-2.948 11.169,-3.311 C 10.909,-4.835 10.429,-6.21 9.734,-7.417 9.057,-8.577 8.131,-9.647 6.97,-10.593 Z"
       style="fill:#ffffff;fill-opacity:1;fill-rule:nonzero;stroke:none"
       transform="matrix(1.3333333,0,0,-1.3333333,134.82413,54.1048)"
       clip-path="url(#clipPath41)" />
    <path
       id="path42"
       d="m 0,0 c -0.242,0 -0.45,0.057 -0.638,0.155 -0.208,0.102 -0.38,0.253 -0.528,0.429 -0.139,0.179 -0.246,0.405 -0.315,0.655 -0.085,0.257 -0.1,0.534 -0.085,0.838 l 0.001,0.847 10.954,0.012 0.005,7.284 -9.387,0.007 c -0.189,0.046 -0.431,0.113 -0.618,0.196 -0.481,0.436 -0.548,0.612 -0.596,0.843 -0.056,0.27 -0.078,0.611 -0.056,1.014 l 10e-4,0.762 13.563,-0.01 -0.007,-10.098 5.972,-0.004 0.006,8.362 c 0.066,0.496 0.249,0.935 0.528,1.253 0.267,0.302 0.616,0.454 1.064,0.482 L 32.13,13.019 V 12.636 C 31.986,11.946 31.655,11.365 31.112,10.91 30.566,10.458 29.919,10.232 29.125,10.207 L 21.192,10.193 21.187,2.928 32.478,2.92 V 2.404 C 32.477,1.947 32.394,1.566 32.229,1.277 32.046,0.966 31.83,0.729 31.551,0.561 31.262,0.37 30.922,0.231 30.548,0.142 30.152,0.047 29.749,-0.003 29.357,-0.02 Z"
       style="fill:#ffffff;fill-opacity:1;fill-rule:nonzero;stroke:none"
       transform="matrix(1.3333333,0,0,-1.3333333,195.354,58.0676)"
       clip-path="url(#clipPath43)" />
    <path
       id="path44"
       d="m 0,0 c -0.609,0 -1.206,-0.06 -1.796,-0.182 -0.681,-0.141 -1.349,-0.44 -2.035,-0.93 -0.666,-0.465 -1.313,-1.135 -1.971,-2.042 -0.645,-0.892 -1.301,-2.077 -1.951,-3.52 l -0.279,-0.611 18.243,-0.013 0.005,7.287 z m 22.269,-0.039 -0.005,-7.267 7.991,-0.006 0.005,7.291 z m -42.218,-10.178 -0.042,21.287 c 0.186,1.504 0.993,1.727 1.579,1.766 l 1.354,-10e-4 -0.014,-20.114 6.34,-0.004 0.027,8.324 c 0.079,0.512 0.255,0.975 0.528,1.312 0.248,0.289 0.575,0.446 1.012,0.463 l 1.36,-10e-4 -0.021,-4.953 0.821,-0.182 c 0.508,1.123 1.037,2.039 1.556,2.713 0.527,0.69 1.032,1.197 1.531,1.551 0.485,0.346 0.984,0.58 1.454,0.691 0.496,0.119 0.99,0.176 1.478,0.175 L 13.126,2.801 13.119,-7.3 19.36,-7.304 19.366,1.084 c 0.21,1.464 0.985,1.683 1.553,1.711 L 33.2,2.787 33.193,-7.767 c 0,-0.404 -0.07,-0.755 -0.188,-1.053 -0.124,-0.283 -0.29,-0.513 -0.507,-0.705 -0.218,-0.202 -0.49,-0.356 -0.808,-0.471 -0.331,-0.124 -0.692,-0.202 -1.073,-0.256 z"
       style="fill:#ffffff;fill-opacity:1;fill-rule:nonzero;stroke:none"
       transform="matrix(1.3333333,0,0,-1.3333333,269.84933,44.4772)"
       clip-path="url(#clipPath45)" />
  </g>
</svg>
